<svg width="145" height="145" viewBox="0 0 145 145" fill="none" xmlns="http://www.w3.org/2000/svg">
<g filter="url(#filter0_d_3_2043)">
<rect x="27.8999" y="27.9" width="89" height="89" rx="16" fill="white"/>
<path d="M102.896 60.645C102.893 60.6246 102.89 60.6047 102.886 60.5847C102.885 60.576 102.884 60.5672 102.882 60.5586C102.877 60.5334 102.871 60.5081 102.864 60.484C102.863 60.4809 102.862 60.4776 102.861 60.4745C102.854 60.45 102.845 60.4261 102.835 60.4025C102.834 60.3992 102.833 60.3958 102.832 60.3927C102.823 60.3722 102.814 60.3527 102.804 60.3331C102.8 60.3268 102.798 60.3205 102.794 60.3139C102.788 60.3013 102.78 60.29 102.773 60.278C102.737 60.2181 102.694 60.1626 102.646 60.1128L102.642 60.1093C102.641 60.1079 102.64 60.1065 102.639 60.1051L96.643 54.1548C96.5609 54.0733 96.4636 54.0088 96.3567 53.9651C96.2499 53.9214 96.1355 53.8993 96.0201 53.9C95.9047 53.9008 95.7906 53.9244 95.6843 53.9694C95.5779 54.0145 95.4815 54.0802 95.4004 54.1628C95.3194 54.2443 95.2552 54.3411 95.2117 54.4478C95.1682 54.5544 95.1461 54.6687 95.1469 54.7839C95.1476 54.8992 95.1711 55.0131 95.216 55.1192C95.2608 55.2252 95.3262 55.3213 95.4083 55.4017L99.881 59.8305H82.4503C79.5403 57.6855 76.0722 56.4502 72.3999 56.4502C68.806 56.4414 65.3072 57.6109 62.4341 59.7813C62.415 59.7956 62.3964 59.8157 62.3777 59.83H46.795C46.5619 59.83 46.3385 59.9231 46.1737 60.0887C46.0089 60.2544 45.9164 60.4791 45.9164 60.7133C45.9164 60.9476 46.0089 61.1722 46.1737 61.3379C46.3385 61.5035 46.5619 61.5966 46.795 61.5966H60.3995C59.2669 62.7791 58.3122 64.1215 57.5656 65.5814C56.3599 67.943 55.7348 70.5608 55.7429 73.2153C55.7429 77.5916 57.407 81.6593 60.3729 84.8139H44.9195L49.3914 80.3657C49.555 80.2005 49.6473 79.977 49.6481 79.7438C49.649 79.5106 49.5583 79.2864 49.3958 79.12C49.2334 78.9535 49.0121 78.8582 48.7802 78.8546C48.5482 78.8511 48.3242 78.9396 48.1568 79.101L42.1617 85.0501C42.0156 85.1942 41.9245 85.3853 41.9043 85.5901C41.9025 85.6075 41.9024 85.6248 41.9017 85.6424C41.9017 85.6541 41.8999 85.6654 41.8999 85.6774C41.8999 85.7072 41.9014 85.7367 41.9043 85.7658C41.9064 85.7863 41.9101 85.8064 41.9135 85.8265C41.9148 85.835 41.9157 85.8437 41.9173 85.8517C41.9225 85.8769 41.9289 85.9022 41.9362 85.9263C41.9371 85.9294 41.9377 85.9327 41.9387 85.9359C41.9461 85.9603 41.9549 85.9842 41.9645 86.0078C41.9657 86.0111 41.9667 86.0145 41.9681 86.0176C41.9765 86.0381 41.9863 86.0576 41.9963 86.0772C41.9994 86.0835 42.0021 86.0898 42.0056 86.0964C42.0124 86.109 42.0201 86.1208 42.0277 86.1331C42.0632 86.1926 42.1057 86.2477 42.1542 86.2971L42.1575 86.3006C42.1587 86.302 42.1598 86.3034 42.1612 86.3048L48.1568 92.2566C48.2389 92.3381 48.3362 92.4026 48.4431 92.4463C48.5499 92.49 48.6643 92.5121 48.7797 92.5114C48.8951 92.5107 49.0092 92.4871 49.1156 92.442C49.2219 92.3969 49.3183 92.3312 49.3994 92.2487C49.4804 92.1672 49.5446 92.0703 49.5881 91.9637C49.6317 91.857 49.6537 91.7428 49.6529 91.6275C49.6522 91.5123 49.6287 91.3983 49.5838 91.2923C49.539 91.1862 49.4736 91.0902 49.3915 91.0097L44.9188 86.5809H62.3495C65.2595 88.726 68.7276 89.9613 72.3999 89.9613C75.9938 89.97 79.4926 88.8005 82.3657 86.6301C82.3848 86.6158 82.4034 86.5958 82.4221 86.5814H98.0048C98.2379 86.5814 98.4613 86.4883 98.6261 86.3227C98.7909 86.157 98.8834 85.9324 98.8834 85.6981C98.8834 85.4639 98.7909 85.2392 98.6261 85.0736C98.4613 84.9079 98.2379 84.8149 98.0048 84.8149H84.4003C85.5329 83.6324 86.4876 82.2899 87.2342 80.8301C88.4399 78.4684 89.065 75.8507 89.0569 73.1961C89.0569 68.8198 87.3928 64.7521 84.4269 61.5976H99.8803L95.4084 66.0457C95.2843 66.1693 95.1995 66.3272 95.1645 66.4993C95.1296 66.6714 95.1463 66.85 95.2123 67.0126C95.2784 67.1752 95.3909 67.3145 95.5357 67.4128C95.6805 67.5112 95.851 67.5641 96.0257 67.5651C96.2567 67.5659 96.4786 67.4748 96.643 67.3117L102.638 61.3625C102.784 61.2182 102.875 61.027 102.896 60.8221C102.897 60.8048 102.897 60.7874 102.898 60.7698C102.898 60.758 102.9 60.7465 102.9 60.7345C102.9 60.7039 102.898 60.6741 102.896 60.645ZM81.3138 85.2098C78.625 87.2283 75.3372 88.2754 71.9828 88.1816C68.6283 88.0878 65.4035 86.8586 62.8305 84.6929C60.2574 82.5273 58.4868 79.552 57.8052 76.2487C57.1236 72.9454 57.571 69.5076 59.0748 66.4917C60.5787 63.4759 63.0511 61.0586 66.0916 59.6312C69.1322 58.2038 72.563 57.8498 75.8286 58.6266C79.0942 59.4034 82.0034 61.2655 84.0853 63.9114C86.1671 66.5573 87.2997 69.8321 87.2997 73.2057C87.3098 75.5386 86.7731 77.8411 85.7331 79.9266C84.6932 82.0121 83.1792 83.8221 81.3138 85.2098Z" fill="url(#paint0_linear_3_2043)"/>
<path d="M77.9635 66.013C78.1965 66.013 78.4199 65.9199 78.5847 65.7543C78.7495 65.5886 78.8421 65.364 78.8421 65.1297C78.8421 64.8955 78.7495 64.6708 78.5847 64.5052C78.4199 64.3395 78.1965 64.2465 77.9635 64.2465H66.8369C66.6038 64.2465 66.3804 64.3395 66.2156 64.5052C66.0508 64.6708 65.9583 64.8955 65.9583 65.1297C65.9583 65.364 66.0508 65.5886 66.2156 65.7543C66.3804 65.9199 66.6038 66.013 66.8369 66.013H70.7875C72.6227 66.013 74.1631 67.401 74.5636 69.0413H66.8369C66.6038 69.0413 66.3804 69.1344 66.2156 69.3C66.0508 69.4657 65.9583 69.6903 65.9583 69.9246C65.9583 70.1589 66.0508 70.3835 66.2156 70.5492C66.3804 70.7148 66.6038 70.8079 66.8369 70.8079H74.5652C74.3736 71.6702 73.8945 72.4408 73.2072 72.9916C72.52 73.5425 71.6661 73.8405 70.7872 73.8362H66.8369C66.6569 73.8391 66.4821 73.8967 66.3353 74.0013C66.1885 74.1059 66.0765 74.2527 66.0142 74.4224C65.9518 74.592 65.942 74.7767 65.9859 74.9522C66.0298 75.1276 66.1254 75.2856 66.2602 75.4054L73.6781 81.8931C73.765 81.9695 73.866 82.028 73.9753 82.0652C74.0846 82.1023 74.2002 82.1174 74.3154 82.1095C74.4305 82.1017 74.543 82.0711 74.6464 82.0195C74.7497 81.9678 74.8419 81.8962 74.9177 81.8087C75.0707 81.6296 75.1474 81.3971 75.1312 81.1615C75.115 80.926 75.0073 80.7063 74.8312 80.55L69.1862 75.6027H70.7875C72.1343 75.6115 73.4391 75.1313 74.4619 74.2504C75.4847 73.3695 76.1569 72.1471 76.355 70.8079H77.9635C78.1965 70.8079 78.4199 70.7148 78.5847 70.5492C78.7495 70.3835 78.8421 70.1589 78.8421 69.9246C78.8421 69.6903 78.7495 69.4657 78.5847 69.3C78.4199 69.1344 78.1965 69.0413 77.9635 69.0413H76.3539C76.1721 67.9057 75.6398 66.8963 74.8707 66.013H77.9635Z" fill="url(#paint1_linear_3_2043)"/>
</g>
<defs>
<filter id="filter0_d_3_2043" x="-9.72748e-05" y="2.47955e-05" width="144.8" height="144.8" filterUnits="userSpaceOnUse" color-interpolation-filters="sRGB">
<feFlood flood-opacity="0" result="BackgroundImageFix"/>
<feColorMatrix in="SourceAlpha" type="matrix" values="0 0 0 0 0 0 0 0 0 0 0 0 0 0 0 0 0 0 127 0" result="hardAlpha"/>
<feOffset/>
<feGaussianBlur stdDeviation="13.95"/>
<feComposite in2="hardAlpha" operator="out"/>
<feColorMatrix type="matrix" values="0 0 0 0 0 0 0 0 0 0 0 0 0 0 0 0 0 0 0.25 0"/>
<feBlend mode="normal" in2="BackgroundImageFix" result="effect1_dropShadow_3_2043"/>
<feBlend mode="normal" in="SourceGraphic" in2="effect1_dropShadow_3_2043" result="shape"/>
</filter>
<linearGradient id="paint0_linear_3_2043" x1="41.8999" y1="53.9" x2="107.337" y2="64.1308" gradientUnits="userSpaceOnUse">
<stop offset="0.298077" stop-color="#E04A00"/>
<stop offset="1" stop-color="#FF915C"/>
</linearGradient>
<linearGradient id="paint1_linear_3_2043" x1="65.9583" y1="64.2465" x2="80.0453" y2="65.2518" gradientUnits="userSpaceOnUse">
<stop offset="0.298077" stop-color="#E04A00"/>
<stop offset="1" stop-color="#FF915C"/>
</linearGradient>
</defs>
</svg>
