<svg width="162" height="162" viewBox="0 0 162 162" fill="none" xmlns="http://www.w3.org/2000/svg">
<g filter="url(#filter0_d_3_2047)">
<rect x="27.8999" y="27.8999" width="106" height="106" rx="16" fill="white"/>
<path d="M92.6231 78.3705C91.7253 81.774 89.9458 84.8806 87.4641 87.3769C84.9823 89.8731 81.8862 91.6707 78.4879 92.5883C75.0896 93.506 71.5095 93.5112 68.1086 92.6034C64.7077 91.6957 61.6063 89.9071 59.1173 87.418C59.0337 87.3344 58.9513 87.2485 58.8689 87.163L61.3864 84.6452C61.4888 84.5429 61.5585 84.4125 61.5867 84.2705C61.615 84.1285 61.6005 83.9814 61.5451 83.8477C61.4897 83.7139 61.3959 83.5996 61.2755 83.5192C61.1552 83.4388 61.0137 83.3959 60.8689 83.3959H54.6456C54.4515 83.3959 54.2654 83.473 54.1282 83.6103C53.9909 83.7475 53.9138 83.9336 53.9138 84.1277V90.351C53.9138 90.4958 53.9567 90.6373 54.0371 90.7576C54.1175 90.878 54.2318 90.9718 54.3656 91.0272C54.4993 91.0826 54.6464 91.0971 54.7884 91.0688C54.9304 91.0406 55.0608 90.9709 55.1631 90.8685L57.8342 88.1974C57.9169 88.2828 57.9991 88.3689 58.0828 88.4525C62.0205 92.3906 67.3341 94.6449 72.9023 94.7398C78.4705 94.8346 83.8578 92.7626 87.9273 88.9608L94.3565 95.3906L91.274 98.4732C91.1368 98.6104 91.0597 98.7966 91.0597 98.9907C91.0597 99.1847 91.1368 99.3709 91.274 99.5081L101.098 109.332C102.151 110.382 103.578 110.972 105.065 110.972C106.553 110.972 107.979 110.382 109.032 109.332L109.259 109.104C110.31 108.051 110.9 106.625 110.9 105.137C110.9 103.65 110.31 102.223 109.259 101.17L99.4356 91.3461C99.2984 91.2089 99.1122 91.1318 98.9182 91.1318C98.7241 91.1318 98.5379 91.2089 98.4007 91.3461L95.3918 94.3553L88.9627 87.9262C91.4329 85.2842 93.1954 82.0608 94.0866 78.5554C94.9777 75.05 94.9686 71.3762 94.0601 67.8753C94.0361 67.7822 93.994 67.6948 93.9362 67.618C93.8784 67.5413 93.806 67.4766 93.7232 67.4278C93.6404 67.379 93.5488 67.347 93.4537 67.3336C93.3585 67.3202 93.2616 67.3256 93.1686 67.3497C93.0755 67.3737 92.9881 67.4158 92.9114 67.4736C92.8346 67.5314 92.77 67.6038 92.7211 67.6866C92.6723 67.7693 92.6403 67.8609 92.6269 67.9561C92.6135 68.0513 92.6189 68.1481 92.643 68.2412C93.4996 71.5641 93.4927 75.0509 92.6231 78.3705ZM55.3778 84.8592H59.1022L55.3774 88.5848L55.3778 84.8592ZM98.9186 92.8978L108.225 102.204C109.001 102.982 109.437 104.037 109.437 105.136C109.437 106.236 109.001 107.29 108.225 108.069L107.998 108.296C107.219 109.072 106.165 109.508 105.065 109.508C103.966 109.508 102.911 109.072 102.133 108.296L92.8269 98.9895L98.9186 92.8978Z" fill="url(#paint0_linear_3_2047)"/>
<path d="M51.9431 76.6967C52.05 76.6968 52.1556 76.6735 52.2525 76.6285C52.3494 76.5835 52.4353 76.5178 52.5041 76.436C52.5729 76.3542 52.6229 76.2584 52.6507 76.1552C52.6785 76.052 52.6834 75.944 52.6649 75.8387C51.9713 71.8886 52.4805 67.8212 54.1263 64.1639C55.7721 60.5066 58.4787 57.428 61.8951 55.3274C65.3115 53.2268 69.2803 52.201 73.2867 52.383C77.2931 52.5651 81.1525 53.9465 84.3644 56.3483L81.9143 58.7992C81.8119 58.9016 81.7422 59.032 81.714 59.1739C81.6857 59.3159 81.7002 59.463 81.7556 59.5967C81.811 59.7305 81.9047 59.8448 82.0251 59.9252C82.1454 60.0056 82.2869 60.0485 82.4317 60.0485H88.6549C88.849 60.0485 89.0352 59.9714 89.1724 59.8342C89.3097 59.697 89.3867 59.5108 89.3867 59.3167V53.0933C89.3867 52.9486 89.3438 52.8072 89.2634 52.6868C89.183 52.5665 89.0687 52.4728 88.935 52.4174C88.8013 52.362 88.6542 52.3475 88.5122 52.3757C88.3703 52.404 88.2399 52.4736 88.1376 52.576L85.4091 55.3042C81.9737 52.6824 77.8273 51.1578 73.5117 50.9298C69.1961 50.7018 64.9121 51.7809 61.2195 54.0262C57.5269 56.2714 54.5975 59.5783 52.8141 63.5148C51.0307 67.4513 50.4762 71.8342 51.2232 76.0907C51.2528 76.2603 51.3412 76.4139 51.4728 76.5248C51.6045 76.6356 51.771 76.6964 51.9431 76.6967ZM87.9236 58.5844H84.1982L85.9837 56.7999L85.9846 56.7991L87.923 54.8607L87.9236 58.5844Z" fill="url(#paint1_linear_3_2047)"/>
<path d="M72.9056 87.5609C76.2794 87.5587 79.5481 86.3868 82.1547 84.2449C84.7614 82.1029 86.5447 79.1234 87.2009 75.814C87.8571 72.5047 87.3456 69.0701 85.7534 66.0956C84.1613 63.1211 81.5871 60.7906 78.4694 59.5013C75.3517 58.2119 71.8833 58.0434 68.6553 59.0245C65.4273 60.0056 62.6393 62.0756 60.7664 64.8818C58.8934 67.6879 58.0514 71.0567 58.3837 74.4141C58.716 77.7715 60.2022 80.9098 62.5889 83.2944C63.9428 84.65 65.5511 85.7248 67.3216 86.4569C69.092 87.1891 70.9897 87.5643 72.9056 87.5609ZM63.6238 63.696C65.4596 61.8602 67.7985 60.61 70.3448 60.1035C72.891 59.597 75.5303 59.857 77.9289 60.8505C80.3274 61.844 82.3775 63.5264 83.8198 65.6851C85.2622 67.8437 86.032 70.3816 86.032 72.9777C86.032 75.5739 85.2622 78.1117 83.8198 80.2704C82.3775 82.429 80.3274 84.1115 77.9289 85.105C75.5303 86.0985 72.891 86.3584 70.3448 85.8519C67.7985 85.3454 65.4596 84.0952 63.6238 82.2595C62.4 81.0433 61.4288 79.5972 60.7661 78.0042C60.1034 76.4113 59.7622 74.703 59.7622 72.9777C59.7622 71.2524 60.1034 69.5442 60.7661 67.9512C61.4288 66.3583 62.4 64.9121 63.6238 63.696Z" fill="url(#paint2_linear_3_2047)"/>
<path d="M71.2575 72.9313L69.0883 72.908C68.9418 72.9065 68.7982 72.9489 68.6761 73.0298C68.554 73.1108 68.459 73.2265 68.4034 73.362C68.3478 73.4976 68.3341 73.6467 68.3642 73.7901C68.3943 73.9334 68.4667 74.0645 68.5721 74.1662L73.9387 79.3478C74.0783 79.4826 74.2658 79.5564 74.4599 79.553C74.6539 79.5496 74.8387 79.4693 74.9735 79.3296C75.1083 79.19 75.1821 79.0025 75.1787 78.8085C75.1753 78.6144 75.0949 78.4297 74.9553 78.2949L70.9121 74.3919L71.2414 74.3954C72.1708 74.4045 73.0742 74.0886 73.7956 73.5024C74.5169 72.9162 75.0108 72.0965 75.192 71.1849L76.6879 71.201H76.6959C76.89 71.202 77.0765 71.1259 77.2145 70.9893C77.3525 70.8528 77.4305 70.6671 77.4316 70.473C77.4326 70.2789 77.3565 70.0924 77.2199 69.9544C77.0834 69.8164 76.8977 69.7384 76.7036 69.7374L75.2086 69.7213C75.0949 69.0628 74.8156 68.4441 74.3971 67.9233L76.7227 67.9477H76.7308C76.9249 67.9487 77.1114 67.8726 77.2494 67.7361C77.3873 67.5996 77.4654 67.4138 77.4664 67.2198C77.4675 67.0257 77.3913 66.8391 77.2548 66.7012C77.1183 66.5632 76.9326 66.4851 76.7385 66.4841L71.3269 66.426L69.1576 66.4029C68.9635 66.4008 68.7765 66.4759 68.6378 66.6117C68.4991 66.7474 68.42 66.9327 68.4179 67.1268C68.4158 67.3209 68.4909 67.5079 68.6267 67.6466C68.7624 67.7853 68.9477 67.8644 69.1418 67.8665L71.3112 67.8897C71.8521 67.8957 72.3767 68.0753 72.8079 68.402C73.239 68.7287 73.5538 69.1853 73.7059 69.7044L69.1232 69.6556H69.1152C69.0191 69.6551 68.9239 69.6736 68.8349 69.7099C68.7459 69.7462 68.665 69.7997 68.5967 69.8673C68.5283 69.9349 68.474 70.0152 68.4368 70.1038C68.3995 70.1924 68.3801 70.2875 68.3796 70.3836C68.3791 70.4797 68.3975 70.575 68.4338 70.6639C68.4701 70.7529 68.5236 70.8339 68.5912 70.9022C68.6588 70.9705 68.7392 71.0248 68.8278 71.0621C68.9164 71.0993 69.0115 71.1187 69.1076 71.1192L73.6879 71.168C73.5239 71.6827 73.1995 72.1315 72.7622 72.4487C72.325 72.766 71.7977 72.9351 71.2575 72.9313Z" fill="url(#paint3_linear_3_2047)"/>
</g>
<defs>
<filter id="filter0_d_3_2047" x="-9.72748e-05" y="-9.72748e-05" width="161.8" height="161.8" filterUnits="userSpaceOnUse" color-interpolation-filters="sRGB">
<feFlood flood-opacity="0" result="BackgroundImageFix"/>
<feColorMatrix in="SourceAlpha" type="matrix" values="0 0 0 0 0 0 0 0 0 0 0 0 0 0 0 0 0 0 127 0" result="hardAlpha"/>
<feOffset/>
<feGaussianBlur stdDeviation="13.95"/>
<feComposite in2="hardAlpha" operator="out"/>
<feColorMatrix type="matrix" values="0 0 0 0 0 0 0 0 0 0 0 0 0 0 0 0 0 0 0.25 0"/>
<feBlend mode="normal" in2="BackgroundImageFix" result="effect1_dropShadow_3_2047"/>
<feBlend mode="normal" in="SourceGraphic" in2="effect1_dropShadow_3_2047" result="shape"/>
</filter>
<linearGradient id="paint0_linear_3_2047" x1="53.9138" y1="67.3264" x2="115.511" y2="75.2855" gradientUnits="userSpaceOnUse">
<stop offset="0.298077" stop-color="#E04A00"/>
<stop offset="1" stop-color="#FF915C"/>
</linearGradient>
<linearGradient id="paint1_linear_3_2047" x1="50.8999" y1="50.8999" x2="92.2932" y2="57.0114" gradientUnits="userSpaceOnUse">
<stop offset="0.298077" stop-color="#E04A00"/>
<stop offset="1" stop-color="#FF915C"/>
</linearGradient>
<linearGradient id="paint2_linear_3_2047" x1="58.3127" y1="58.3943" x2="90.055" y2="61.5356" gradientUnits="userSpaceOnUse">
<stop offset="0.298077" stop-color="#E04A00"/>
<stop offset="1" stop-color="#FF915C"/>
</linearGradient>
<linearGradient id="paint3_linear_3_2047" x1="68.3486" y1="66.4028" x2="78.3218" y2="67.0872" gradientUnits="userSpaceOnUse">
<stop offset="0.298077" stop-color="#E04A00"/>
<stop offset="1" stop-color="#FF915C"/>
</linearGradient>
</defs>
</svg>
