<svg width="186" height="186" viewBox="0 0 186 186" fill="none" xmlns="http://www.w3.org/2000/svg">
<g filter="url(#filter0_d_3_2037)">
<rect x="27.8999" y="27.9" width="130" height="130" rx="32" fill="white"/>
<path d="M104.134 86.6869C104.134 84.465 103.475 82.2929 102.241 80.4455C101.006 78.598 99.2519 77.1581 97.1991 76.3077C95.1464 75.4574 92.8876 75.2349 90.7083 75.6683C88.5291 76.1018 86.5274 77.1717 84.9563 78.7428C83.3851 80.3139 82.3151 82.3156 81.8817 84.4948C81.4482 86.674 81.6706 88.9328 82.5209 90.9856C83.3712 93.0383 84.8111 94.7929 86.6585 96.0273C88.5059 97.2617 90.6779 97.9206 92.8998 97.9206C95.8782 97.9172 98.7336 96.7326 100.84 94.6266C102.946 92.5206 104.13 89.6652 104.134 86.6869ZM83.7451 86.6869C83.7451 84.8762 84.2819 83.1062 85.2878 81.6007C86.2937 80.0952 87.7235 78.9217 89.3963 78.2288C91.0691 77.5359 92.9098 77.3545 94.6856 77.7077C96.4615 78.0609 98.0927 78.9328 99.3731 80.2131C100.653 81.4934 101.525 83.1246 101.879 84.9005C102.232 86.6763 102.051 88.517 101.358 90.1898C100.665 91.8627 99.4914 93.2925 97.9859 94.2984C96.4804 95.3043 94.7105 95.8413 92.8998 95.8413C90.4727 95.8385 88.1458 94.8732 86.4296 93.157C84.7134 91.4408 83.7479 89.1139 83.7451 86.6869Z" fill="url(#paint0_linear_3_2037)"/>
<path d="M107.287 86.6715C107.287 82.7652 105.771 79.019 103.073 76.2569C100.375 73.4947 96.7146 71.943 92.8984 71.943C89.0823 71.943 85.4224 73.4947 82.7239 76.2569C80.0255 79.019 78.5095 82.7652 78.5095 86.6715C78.5095 94.4443 84.4862 100.829 91.8846 101.363V107.315C90.4339 105.489 88.5916 104.097 86.3747 103.359C84.5829 102.762 82.6751 102.626 80.8197 102.963C78.9643 103.299 77.2183 104.098 75.7359 105.288C75.5769 105.416 75.4586 105.589 75.3963 105.786C75.3339 105.982 75.3303 106.194 75.3858 106.392C76.0713 108.851 77.5206 111.015 79.5146 112.556C81.5086 114.097 83.9386 114.931 86.4369 114.932C88.3382 114.924 90.2086 114.44 91.8849 113.522V122.159C91.8849 122.435 91.9919 122.699 92.1823 122.894C92.3727 123.089 92.631 123.198 92.9003 123.198C93.1696 123.198 93.4279 123.089 93.6184 122.894C93.8088 122.699 93.9158 122.435 93.9158 122.159V113.525C95.5915 114.441 97.4604 114.924 99.36 114.932C101.859 114.931 104.289 114.097 106.284 112.557C108.279 111.016 109.728 108.852 110.414 106.392C110.469 106.193 110.466 105.982 110.403 105.785C110.341 105.589 110.223 105.415 110.064 105.288C108.581 104.097 106.834 103.299 104.979 102.962C103.123 102.626 101.215 102.762 99.4225 103.359C97.2088 104.095 95.3664 105.484 93.9158 107.306V101.362C101.314 100.825 107.287 94.4418 107.287 86.6715ZM100.052 105.337C101.415 104.883 102.86 104.752 104.28 104.954C105.699 105.156 107.055 105.686 108.244 106.504C107.751 107.881 106.959 109.125 105.927 110.143C104.895 111.161 103.65 111.925 102.288 112.378C100.925 112.832 99.4793 112.962 98.0601 112.76C96.6409 112.558 95.2851 112.028 94.0951 111.211C94.5879 109.834 95.3803 108.589 96.4123 107.571C97.4443 106.553 98.689 105.789 100.052 105.337ZM80.5425 86.6715C80.5424 84.1696 81.2671 81.7239 82.6249 79.6437C83.9828 77.5634 85.9128 75.942 88.1709 74.9846C90.429 74.0271 92.9137 73.7765 95.311 74.2645C97.7082 74.7526 99.9102 75.9573 101.639 77.7263C103.367 79.4954 104.544 81.7493 105.021 84.2031C105.498 86.6568 105.253 89.2003 104.318 91.5117C103.382 93.8231 101.798 95.7987 99.766 97.1887C97.7338 98.5786 95.3445 99.3205 92.9003 99.3205C89.624 99.3167 86.483 97.9829 84.1662 95.6116C81.8495 93.2402 80.5463 90.0251 80.5425 86.6715ZM83.5134 112.378C82.1504 111.925 80.9058 111.161 79.8738 110.143C78.8418 109.126 78.0494 107.881 77.5566 106.504C78.7466 105.687 80.1024 105.157 81.5216 104.955C82.9408 104.753 84.3864 104.883 85.7492 105.336C87.1119 105.79 88.3562 106.554 89.3881 107.572C90.42 108.589 91.2126 109.834 91.7059 111.211C90.5161 112.028 89.1603 112.558 87.741 112.76C86.3216 112.963 84.876 112.832 83.5134 112.377V112.378Z" fill="url(#paint1_linear_3_2037)"/>
<path d="M95.2383 62.9555L98.8026 59.6971C98.9029 59.6054 98.9841 59.4949 99.0417 59.3719C99.0992 59.2488 99.1319 59.1157 99.1379 58.98C99.144 58.8443 99.1232 58.7088 99.0768 58.5811C99.0304 58.4535 98.9592 58.3362 98.8675 58.236C98.7757 58.1358 98.6651 58.0547 98.5419 57.9972C98.4188 57.9397 98.2855 57.9071 98.1497 57.901C98.0139 57.895 97.8782 57.9158 97.7505 57.9622C97.6227 58.0085 97.5053 58.0796 97.4051 58.1713L91.9528 63.1564C91.8516 63.249 91.7698 63.3607 91.7122 63.4852C91.6546 63.6096 91.6223 63.7442 91.6173 63.8812C91.6122 64.0182 91.6345 64.1548 91.6828 64.2832C91.7311 64.4115 91.8044 64.5289 91.8986 64.6287L96.985 70.016C97.1742 70.2115 97.433 70.3247 97.7052 70.331C97.9774 70.3373 98.2412 70.2361 98.4392 70.0495C98.6373 69.8628 98.7538 69.6057 98.7635 69.3338C98.7731 69.062 98.6752 68.7972 98.4908 68.597L95.1174 65.0237C111.044 66.1557 123.712 79.4034 123.829 95.6214C123.874 101.733 122.103 107.72 118.741 112.827C115.38 117.933 110.578 121.928 104.944 124.308C99.309 126.688 93.0947 127.345 87.0865 126.196C81.0783 125.047 75.546 122.144 71.1892 117.854C67.9398 114.654 65.4393 110.775 63.8667 106.496C62.2941 102.217 61.6885 97.643 62.0932 93.1025C62.4979 88.562 63.9029 84.1672 66.2075 80.233C68.5121 76.2988 71.6593 72.9227 75.4235 70.3466C75.5369 70.2703 75.6341 70.1724 75.7095 70.0584C75.7848 69.9444 75.8368 69.8166 75.8624 69.6824C75.8881 69.5482 75.8869 69.4103 75.8588 69.2766C75.8308 69.1429 75.7766 69.0161 75.6992 68.9034C75.6218 68.7908 75.5229 68.6946 75.4081 68.6204C75.2933 68.5462 75.1649 68.4954 75.0304 68.471C74.8959 68.4467 74.7578 68.4492 74.6243 68.4784C74.4907 68.5076 74.3643 68.563 74.2522 68.6414C68.4385 72.62 64.0521 78.3533 61.7351 85.0023C59.4181 91.6512 59.2921 98.8666 61.3757 105.592C63.4592 112.318 67.6429 118.201 73.3142 122.379C78.9856 126.558 85.8469 128.813 92.8937 128.815C92.9754 128.815 93.0578 128.815 93.1396 128.814C99.6661 128.767 106.032 126.787 111.432 123.125C116.833 119.463 121.025 114.284 123.479 108.241C125.933 102.199 126.538 95.5656 125.219 89.1795C123.899 82.7934 120.714 76.9417 116.065 72.3644C110.48 66.8297 103.087 63.4896 95.2383 62.9555Z" fill="url(#paint2_linear_3_2037)"/>
<path d="M94.1841 93.709C94.4008 93.7092 94.6123 93.6462 94.7904 93.5282C94.9685 93.4103 95.1047 93.2432 95.1807 93.0493C95.2566 92.8554 95.2688 92.6439 95.2156 92.4432C95.1623 92.2425 95.0462 92.0621 94.8827 91.9262L91.8909 89.4424C92.8407 89.4131 93.7551 89.091 94.4975 88.5239C95.2399 87.9569 95.7704 87.1755 96.0097 86.2965H96.7521C97.034 86.2965 97.3044 86.1895 97.5038 85.9989C97.7031 85.8083 97.8151 85.5499 97.8151 85.2804C97.8151 85.0109 97.7031 84.7525 97.5038 84.5619C97.3044 84.3713 97.034 84.2643 96.7521 84.2643H96.0079C95.8947 83.8605 95.7324 83.4707 95.5244 83.103H96.7516C97.0336 83.103 97.304 82.996 97.5033 82.8054C97.7027 82.6149 97.8147 82.3564 97.8147 82.0869C97.8147 81.8174 97.7027 81.559 97.5033 81.3684C97.304 81.1779 97.0336 81.0708 96.7516 81.0708H89.0497C88.7677 81.0708 88.4973 81.1779 88.2979 81.3684C88.0986 81.559 87.9866 81.8174 87.9866 82.0869C87.9866 82.3564 88.0986 82.6149 88.2979 82.8054C88.4973 82.996 88.7677 83.103 89.0497 83.103H91.7846C92.1927 83.0994 92.5935 83.2066 92.9403 83.4122C93.2871 83.6178 93.5657 83.9133 93.7437 84.2643H89.051C88.7691 84.2643 88.4987 84.3713 88.2993 84.5619C88.0999 84.7525 87.9879 85.0109 87.9879 85.2804C87.9879 85.5499 88.0999 85.8083 88.2993 85.9989C88.4987 86.1895 88.7691 86.2965 89.051 86.2965H93.7469C93.5686 86.6477 93.2897 86.9432 92.9426 87.1488C92.5954 87.3544 92.1943 87.4615 91.786 87.4578H89.0497C88.835 87.4522 88.6239 87.5106 88.4455 87.6246C88.2671 87.7387 88.1301 87.903 88.0535 88.0947C87.9769 88.2864 87.9645 88.4961 88.018 88.6948C88.0715 88.8935 88.1883 89.0715 88.3521 89.204L93.4871 93.4659C93.6808 93.6252 93.9286 93.7116 94.1841 93.709Z" fill="url(#paint3_linear_3_2037)"/>
</g>
<defs>
<filter id="filter0_d_3_2037" x="-9.72748e-05" y="2.47955e-05" width="185.8" height="185.8" filterUnits="userSpaceOnUse" color-interpolation-filters="sRGB">
<feFlood flood-opacity="0" result="BackgroundImageFix"/>
<feColorMatrix in="SourceAlpha" type="matrix" values="0 0 0 0 0 0 0 0 0 0 0 0 0 0 0 0 0 0 127 0" result="hardAlpha"/>
<feOffset/>
<feGaussianBlur stdDeviation="13.95"/>
<feComposite in2="hardAlpha" operator="out"/>
<feColorMatrix type="matrix" values="0 0 0 0 0 0 0 0 0 0 0 0 0 0 0 0 0 0 0.25 0"/>
<feBlend mode="normal" in2="BackgroundImageFix" result="effect1_dropShadow_3_2037"/>
<feBlend mode="normal" in="SourceGraphic" in2="effect1_dropShadow_3_2037" result="shape"/>
</filter>
<linearGradient id="paint0_linear_3_2037" x1="81.6658" y1="75.4525" x2="106.118" y2="77.8724" gradientUnits="userSpaceOnUse">
<stop offset="0.298077" stop-color="#E04A00"/>
<stop offset="1" stop-color="#FF915C"/>
</linearGradient>
<linearGradient id="paint1_linear_3_2037" x1="75.3467" y1="71.943" x2="113.751" y2="74.5461" gradientUnits="userSpaceOnUse">
<stop offset="0.298077" stop-color="#E04A00"/>
<stop offset="1" stop-color="#FF915C"/>
</linearGradient>
<linearGradient id="paint2_linear_3_2037" x1="59.9001" y1="57.9" x2="131.822" y2="64.5243" gradientUnits="userSpaceOnUse">
<stop offset="0.298077" stop-color="#E04A00"/>
<stop offset="1" stop-color="#FF915C"/>
</linearGradient>
<linearGradient id="paint3_linear_3_2037" x1="87.9854" y1="81.0708" x2="98.7243" y2="81.8974" gradientUnits="userSpaceOnUse">
<stop offset="0.298077" stop-color="#E04A00"/>
<stop offset="1" stop-color="#FF915C"/>
</linearGradient>
</defs>
</svg>
