<svg width="162" height="162" viewBox="0 0 162 162" fill="none" xmlns="http://www.w3.org/2000/svg">
<g filter="url(#filter0_d_3_2053)">
<rect x="27.8999" y="27.9" width="106" height="106" rx="16" fill="white"/>
<path d="M79.909 81.3154H76.9221L77.7568 82.383L80.9254 86.4374H82.2798L79.1112 82.383H79.9119C81.0901 82.383 82.047 81.4262 82.047 80.2479V79.3137H84.3439V78.2461H82.047V77.5818C82.047 77.2041 81.9476 76.8492 81.7744 76.5398H84.3439V75.4722H76.925V76.5398H80.1391C80.6189 76.6448 80.9794 77.0707 80.9794 77.5818V78.2461H76.925V79.3137H80.9794V80.2479C80.9794 80.8356 80.4996 81.3155 79.9119 81.3155L79.909 81.3154Z" fill="url(#paint0_linear_3_2053)"/>
<path d="M80.6302 91.2834C86.621 91.2834 91.4762 86.4283 91.4762 80.4374C91.4762 74.4465 86.6211 69.5914 80.6302 69.5914C74.6393 69.5914 69.7842 74.4465 69.7842 80.4374C69.7842 86.4283 74.6393 91.2834 80.6302 91.2834ZM80.6302 70.6592C86.0219 70.6592 90.4084 75.0458 90.4084 80.4374C90.4084 85.829 86.0218 90.2157 80.6302 90.2157C75.2386 90.2157 70.8519 85.829 70.8519 80.4374C70.8519 75.0458 75.2386 70.6592 80.6302 70.6592Z" fill="url(#paint1_linear_3_2053)"/>
<path d="M97.6599 94.1401L97.6173 94.123L97.5719 94.1088C97.0551 93.9413 96.5157 93.8618 95.9677 93.8704C95.2693 93.8817 94.6588 94.0322 94.1619 94.2111C93.6622 93.8136 92.9126 93.4558 91.8395 93.4729C91.4448 93.4786 91.0246 93.5382 90.5931 93.6461C90.2325 93.7227 88.9122 94.1202 85.6727 96.0907C84.1566 94.9067 82.0611 94.83 81.7915 94.8272H81.7574L78.5548 94.8755C78.5406 94.8755 76.0591 94.8811 74.594 94.4496C72.9501 93.9669 71.769 93.7256 69.8724 93.754C67.0984 93.7966 64.8838 95.2275 64.7901 95.2872L58.2655 99.6454L57.7772 98.8504L57.675 98.6857C57.0588 97.6835 55.7414 97.3683 54.7363 97.9844L52.9164 99.1031C51.9141 99.7192 51.599 101.037 52.2151 102.042L58.9242 112.956C59.5404 113.958 60.8578 114.273 61.8629 113.657L63.6828 112.539C64.6851 111.923 65.0002 110.605 64.3841 109.6L64.3444 109.535L63.873 108.771L68.3932 106.091C69.597 106.346 73.1546 107.082 75.8629 107.419C77.1804 107.584 78.1939 107.649 79.1508 107.635C81.601 107.598 83.7503 107.008 86.1268 105.722C89.2557 104.027 94.6898 99.7904 97.0128 97.9822C97.4529 97.6386 97.7766 97.3859 97.9498 97.2581C98.7731 96.642 98.881 95.9918 98.8271 95.5517C98.7135 94.6233 97.8333 94.2087 97.6601 94.135L97.6599 94.1401ZM90.8315 94.6881C91.0047 94.6426 91.1666 94.6142 91.3227 94.5887C91.371 94.5802 91.4136 94.5773 91.459 94.5716C91.5697 94.5575 91.6776 94.5489 91.7798 94.5461C91.8054 94.5461 91.8338 94.5404 91.8565 94.5404C91.8707 94.5404 91.8821 94.5433 91.8963 94.5433C92.0609 94.5433 92.2114 94.5518 92.3534 94.5745C92.3818 94.5773 92.4073 94.583 92.4329 94.5887C92.572 94.6142 92.7054 94.6426 92.8219 94.6852C92.8247 94.6852 92.8275 94.6852 92.8275 94.6881C92.8957 94.7108 92.9525 94.742 93.0121 94.7704C92.9525 94.8073 92.9099 94.8385 92.89 94.8527L88.1513 98.1179C87.7311 98.4075 87.3109 98.6062 86.9333 98.7425C87.0781 97.9475 86.6323 97.1753 86.4364 96.88C89.7612 94.8783 90.8259 94.6938 90.8259 94.6938L90.8315 94.6881ZM63.6061 110.968C63.5436 111.235 63.3789 111.476 63.1262 111.629L61.3063 112.748C60.8037 113.058 60.145 112.902 59.8384 112.399L53.1293 101.485C52.8198 100.982 52.976 100.323 53.4785 100.017L55.2984 98.8981C55.5483 98.7448 55.8407 98.705 56.1048 98.7703C56.3717 98.8328 56.613 98.9975 56.7664 99.2502L56.8317 99.358L57.391 100.269L58.3706 101.862L63.2994 109.877L63.4755 110.164C63.6288 110.414 63.6685 110.706 63.6032 110.97L63.6061 110.968ZM97.7533 95.8692C97.7419 95.9089 97.7249 95.9487 97.7022 95.9913C97.6568 96.0764 97.5858 96.1673 97.4864 96.261C97.4353 96.3093 97.3785 96.3575 97.3104 96.4086C97.211 96.4853 97.0577 96.6017 96.8618 96.755C96.7312 96.8572 96.5807 96.9736 96.4103 97.1042C95.6522 97.6948 94.5449 98.5579 93.2871 99.5119C93.0089 99.7249 92.7221 99.9406 92.4297 100.159C92.1372 100.378 91.842 100.599 91.541 100.818C91.2428 101.039 90.939 101.261 90.6381 101.48C90.1838 101.809 89.7295 102.133 89.2809 102.448C88.8323 102.763 88.3894 103.064 87.9607 103.351C87.6739 103.541 87.3957 103.723 87.126 103.893C86.8563 104.063 86.5922 104.228 86.3423 104.376C86.0896 104.526 85.8512 104.662 85.6212 104.787C85.3486 104.935 85.0817 105.068 84.8176 105.196C84.7381 105.233 84.6615 105.27 84.582 105.304C84.3889 105.392 84.2015 105.474 84.0141 105.554C83.9375 105.585 83.8608 105.619 83.7842 105.648C83.5428 105.744 83.3015 105.832 83.0658 105.912C83.0573 105.914 83.046 105.917 83.0374 105.923C82.7904 106.005 82.5491 106.073 82.3078 106.139C82.2368 106.159 82.1658 106.176 82.0977 106.193C81.9216 106.238 81.7456 106.278 81.5724 106.312C81.5014 106.326 81.4304 106.34 81.3595 106.354C81.1408 106.394 80.9222 106.431 80.7064 106.46C80.6922 106.462 80.6752 106.465 80.661 106.465C80.4282 106.494 80.1982 106.516 79.9682 106.533C79.9001 106.539 79.8348 106.542 79.7666 106.545C79.5963 106.556 79.4259 106.562 79.2556 106.567C79.2158 106.567 79.1761 106.573 79.1363 106.573H79.0512C78.8325 106.576 78.6139 106.573 78.3953 106.567H78.3584C78.1256 106.559 77.8899 106.548 77.6543 106.531C77.5861 106.525 77.518 106.519 77.4498 106.513C77.2738 106.499 77.0949 106.485 76.9189 106.468C76.8507 106.462 76.7826 106.454 76.7116 106.448C76.476 106.423 76.2375 106.397 75.9961 106.366C75.1898 106.266 74.2983 106.127 73.4181 105.977C72.5379 105.826 71.6634 105.665 70.894 105.514C69.3522 105.213 68.2109 104.966 68.2109 104.966L63.316 107.868L58.8243 100.562L65.3744 96.187C65.3744 96.187 65.6584 96.0025 66.1439 95.7668C66.3057 95.6902 66.4903 95.605 66.6947 95.5226C66.8991 95.4403 67.1234 95.3551 67.3619 95.2756C68.0831 95.0371 68.9519 94.8441 69.886 94.8299C70.7492 94.8157 71.4448 94.8611 72.1262 94.9662C72.8104 95.0741 73.4805 95.2416 74.2897 95.4801C74.4941 95.5397 74.7156 95.5936 74.9427 95.6391C75.5162 95.7526 76.1409 95.8264 76.7087 95.8719C76.9359 95.8889 77.1545 95.9031 77.3561 95.9145C78.0631 95.9514 78.5685 95.9485 78.5685 95.9485L81.7711 95.9003H81.7995C81.8364 95.9031 81.9131 95.9059 82.0153 95.9145C82.1686 95.9258 82.39 95.9485 82.6456 95.994C82.904 96.0366 83.1992 96.1019 83.5059 96.1927C83.8977 96.312 84.3066 96.4795 84.6813 96.7095C84.7012 96.7208 84.7211 96.7322 84.741 96.7435C84.9369 96.8685 85.1243 97.0133 85.2918 97.1779C85.3741 97.2603 85.4536 97.3455 85.5274 97.4391C85.5274 97.442 85.5303 97.442 85.5303 97.442C85.5303 97.442 86.6234 99.0263 85.022 99.0518L84.1078 99.066L82.992 99.083L77.5491 99.1654C77.4015 99.1682 77.268 99.2307 77.1743 99.3272C77.0778 99.4266 77.021 99.56 77.0239 99.7077C77.0295 100.003 77.2709 100.239 77.5662 100.233L84.4514 100.128L85.5729 100.111C85.5729 100.111 87.1742 100.085 88.7585 98.995L93.5142 95.7185C93.5142 95.7185 93.5284 95.71 93.5483 95.6958C93.5568 95.6901 93.5597 95.6901 93.571 95.6816C93.6023 95.6617 93.642 95.6362 93.696 95.6049C93.7016 95.6021 93.7102 95.5964 93.7158 95.5936C93.7641 95.5652 93.8237 95.5311 93.8919 95.4971C93.9004 95.4942 93.9032 95.4914 93.9117 95.4857H93.9146C93.9231 95.48 93.9316 95.4772 93.943 95.4715C94.0196 95.4318 94.1048 95.392 94.2013 95.3494C94.2184 95.3409 94.2383 95.3324 94.2581 95.3267C94.3461 95.2898 94.4398 95.2529 94.5392 95.216C94.5591 95.2075 94.579 95.2018 94.5988 95.1933C94.7039 95.1563 94.8146 95.1251 94.931 95.0939C94.9424 95.091 94.9537 95.0882 94.9651 95.0825C94.9935 95.074 95.0247 95.0683 95.0531 95.0627C95.178 95.0343 95.3086 95.0059 95.4449 94.986C95.4563 94.9832 95.4676 94.9803 95.4818 94.9803C95.6266 94.9604 95.7771 94.9491 95.9304 94.9462C95.9503 94.9462 95.9674 94.9434 95.9872 94.9406C96.0185 94.9406 96.0525 94.9434 96.0838 94.9434C96.1263 94.9434 96.1718 94.9434 96.2144 94.9462C96.2825 94.9491 96.3506 94.9548 96.4216 94.9604C96.4642 94.9633 96.5068 94.969 96.5522 94.9746C96.6289 94.9832 96.7056 94.9974 96.7822 95.0144C96.8191 95.0229 96.8589 95.0257 96.8958 95.0343C97.0122 95.0598 97.1286 95.091 97.2479 95.128C97.2479 95.128 97.3586 95.1762 97.4778 95.2642C97.5744 95.3352 97.6766 95.4346 97.7305 95.5567C97.7447 95.5879 97.7561 95.6191 97.7618 95.6532C97.7703 95.6873 97.7731 95.7214 97.7703 95.7583C97.7703 95.7952 97.7646 95.8321 97.7533 95.8718L97.7533 95.8692Z" fill="url(#paint2_linear_3_2053)"/>
<path d="M109.042 58.8308L102.333 47.9165C101.717 46.9142 100.4 46.5991 99.3947 47.2152L97.5747 48.3339C96.5725 48.95 96.2573 50.2674 96.8734 51.2725L96.9132 51.3378L97.4867 52.272L97.5776 52.4196L97.3817 52.1045L92.8616 54.7847C91.6578 54.5292 88.1001 53.7938 85.3918 53.456C84.0744 53.2913 83.0608 53.226 82.104 53.2402C79.6537 53.2771 77.5044 53.8676 75.1279 55.1538C71.999 56.8488 66.5649 61.085 64.2419 62.8933C63.8018 63.2368 63.4782 63.4895 63.305 63.6173C62.4816 64.2334 62.3737 64.8836 62.4276 65.3237C62.5412 66.2521 63.4214 66.6667 63.5946 66.7405L63.6372 66.7575L63.6826 66.7717C64.1994 66.9392 64.7388 67.0187 65.2868 67.0102C65.9852 66.9988 66.5957 66.8483 67.0925 66.6695C67.5922 67.067 68.3418 67.4247 69.415 67.4077C69.8097 67.402 70.2299 67.3424 70.6614 67.2345C71.022 67.1578 72.3423 66.7603 75.5818 64.7899C77.0979 65.9738 79.1934 66.0505 79.463 66.0533H79.4971L82.6997 66.0051C82.7139 66.0051 85.1954 65.9994 86.6605 66.431C88.3044 66.9136 89.4855 67.155 91.3821 67.1266C94.1561 67.084 96.3707 65.653 96.4644 65.5934L102.989 61.2351L102.938 61.1499L103.48 62.0301L103.582 62.1948C104.198 63.197 105.516 63.5122 106.521 62.896L108.341 61.7774C109.343 61.1612 109.658 59.8438 109.042 58.8387L109.042 58.8308ZM70.4288 66.1872C70.2556 66.2326 70.0938 66.261 69.9376 66.2866C69.8893 66.2951 69.8467 66.2979 69.8013 66.3036C69.6906 66.3178 69.5827 66.3263 69.4805 66.3292C69.4549 66.3292 69.4265 66.3349 69.4038 66.3349C69.3896 66.3349 69.3783 66.332 69.3641 66.332C69.1994 66.332 69.0489 66.3207 68.9069 66.3008C68.8786 66.2979 68.853 66.2923 68.8274 66.2866C68.6883 66.261 68.5549 66.2326 68.4385 66.1901C68.4356 66.1901 68.4328 66.1901 68.4328 66.1872C68.3646 66.1645 68.3079 66.1333 68.2482 66.1049C68.3079 66.068 68.3504 66.0367 68.3703 66.0225L73.109 62.7574C73.5292 62.4678 73.9494 62.2691 74.327 62.1328C74.1822 62.9278 74.628 63.7 74.8239 63.9953C71.4992 65.997 70.4344 66.1815 70.4344 66.1815L70.4288 66.1872ZM95.8851 64.6909C95.8851 64.6909 95.6012 64.8755 95.1157 65.1111C94.9538 65.1878 94.7693 65.273 94.5649 65.3553C94.3604 65.4377 94.1361 65.5228 93.8976 65.6023C93.1765 65.8408 92.3077 66.0339 91.3735 66.0481C90.5104 66.0623 89.8148 66.0169 89.1334 65.9118C88.4491 65.8039 87.779 65.6364 86.9699 65.3979C86.7654 65.3383 86.544 65.2843 86.3168 65.2389C85.7461 65.1253 85.1187 65.0515 84.5508 65.0061C84.3237 64.9891 84.105 64.9749 83.9035 64.9635C83.1965 64.9266 82.6911 64.9294 82.6911 64.9294L79.4885 64.9777H79.4601C79.4232 64.9777 79.3465 64.972 79.2443 64.9635C79.091 64.9521 78.8695 64.9294 78.614 64.884C78.3556 64.8414 78.0603 64.7761 77.7537 64.6852C77.3619 64.566 76.953 64.3985 76.5782 64.1685C76.5583 64.1571 76.5385 64.1458 76.5186 64.1344C76.3227 64.0095 76.1353 63.8647 75.9678 63.7C75.8854 63.6177 75.8059 63.5325 75.7321 63.4388C75.7321 63.436 75.7293 63.436 75.7293 63.436C75.7293 63.436 74.6362 61.8517 76.2375 61.8262L77.1517 61.812L78.2676 61.7949L83.7104 61.7126C83.8581 61.7097 83.9915 61.6473 84.0852 61.5507C84.1789 61.4514 84.2385 61.3179 84.2357 61.1703C84.23 60.875 83.9887 60.6393 83.6934 60.645L76.8082 60.7501L75.6867 60.7671C75.6867 60.7671 74.0854 60.7927 72.5011 61.883L67.7453 65.1594C67.7453 65.1594 67.7311 65.168 67.7112 65.1822C67.7027 65.1878 67.6999 65.1878 67.6885 65.1963C67.6573 65.2162 67.6175 65.2418 67.5636 65.273C67.5579 65.2758 67.5494 65.2815 67.5437 65.2844C67.4954 65.3128 67.4358 65.3468 67.3705 65.3809C67.362 65.3837 67.3592 65.3866 67.3506 65.3923H67.3478C67.3393 65.3979 67.3308 65.4008 67.3194 65.4065C67.2428 65.4462 67.1576 65.486 67.061 65.5285C67.044 65.5371 67.0241 65.5456 67.0043 65.5513C66.9162 65.5882 66.8225 65.6251 66.7232 65.662C66.7033 65.6705 66.6834 65.6762 66.6635 65.6847C66.5585 65.7188 66.4478 65.7528 66.3314 65.7841L66.2973 65.7926C66.2689 65.8011 66.2377 65.8068 66.2093 65.8125C66.0843 65.8409 65.9537 65.8692 65.8175 65.8891C65.8061 65.892 65.7947 65.8948 65.7806 65.8948C65.6357 65.9147 65.4853 65.926 65.3319 65.9289C65.3121 65.9289 65.295 65.9317 65.2752 65.9345C65.2439 65.9345 65.2099 65.9317 65.1786 65.9317C65.136 65.9317 65.0906 65.9317 65.048 65.9289C64.9799 65.926 64.9117 65.9204 64.8408 65.9147C64.7982 65.9118 64.7556 65.9062 64.7101 65.9005C64.6335 65.892 64.5568 65.8778 64.4802 65.8607C64.4433 65.8522 64.4035 65.8494 64.3666 65.8409C64.2502 65.8153 64.1338 65.7841 64.0145 65.7472C64.0145 65.7472 63.9038 65.6989 63.7845 65.6109C63.688 65.5399 63.5858 65.4405 63.5319 65.3184C63.5177 65.2872 63.5063 65.256 63.5006 65.2219C63.4949 65.1878 63.4893 65.1538 63.4921 65.1169C63.4921 65.0799 63.4978 65.043 63.5091 65.0033C63.5205 64.9635 63.5375 64.9238 63.5602 64.8812C63.6057 64.796 63.6767 64.7052 63.776 64.6115C63.8271 64.5632 63.8839 64.5149 63.9521 64.4638C64.0514 64.3872 64.2048 64.2708 64.4007 64.1174C64.5313 64.0152 64.6818 63.8988 64.8521 63.7682C65.6102 63.1777 66.7175 62.3145 67.9753 61.3605C68.2535 61.1476 68.5403 60.9318 68.8327 60.7132C69.1252 60.4946 69.4205 60.2731 69.7215 60.0545C70.0196 59.833 70.3234 59.6116 70.6244 59.3929C71.0786 59.0636 71.5329 58.7399 71.9815 58.4248C72.4301 58.1125 72.8731 57.8087 73.3018 57.5247C73.5885 57.3345 73.8668 57.1528 74.1365 56.9824C74.4062 56.8093 74.6703 56.6474 74.9201 56.4998C75.1728 56.3493 75.4113 56.213 75.6413 56.0881C75.9138 55.9404 76.1807 55.807 76.4448 55.6792C76.5243 55.6423 76.6009 55.6054 76.6804 55.5713C76.8735 55.4833 77.0609 55.401 77.2483 55.3215C77.3249 55.2903 77.4016 55.2562 77.4783 55.2278C77.7196 55.1313 77.9609 55.0432 78.1966 54.9637C78.2051 54.9609 78.2165 54.9552 78.225 54.9524C78.472 54.87 78.7133 54.8019 78.9547 54.7366C79.0257 54.7167 79.0966 54.6997 79.1648 54.6827C79.3408 54.6372 79.5168 54.5975 79.69 54.5634C79.761 54.5492 79.832 54.535 79.903 54.5208C80.1216 54.4811 80.3402 54.4442 80.556 54.4158C80.5702 54.4129 80.5872 54.4101 80.6014 54.4101C80.8342 54.3817 81.0642 54.359 81.2942 54.3419C81.3623 54.3363 81.4276 54.3334 81.4958 54.3306C81.6661 54.3192 81.8365 54.3136 82.0068 54.3107C82.0466 54.3107 82.0863 54.305 82.1261 54.305H82.2113C82.4299 54.3022 82.6485 54.305 82.8671 54.3107H82.904C83.1369 54.3192 83.3725 54.3306 83.6082 54.3476C83.6763 54.3533 83.7445 54.359 83.8126 54.3618C83.9886 54.376 84.1675 54.3902 84.3435 54.4072C84.4117 54.4129 84.4798 54.4214 84.5508 54.4271C84.7865 54.4527 85.025 54.4782 85.2663 54.5095C86.0727 54.6088 86.9641 54.748 87.8444 54.8984C88.7245 55.0489 89.599 55.2108 90.3685 55.3612C91.9102 55.6622 93.0515 55.9092 93.0515 55.9092L97.9464 53.0075L102.438 60.313L95.888 64.6883L95.8851 64.6909ZM107.781 60.8608L105.961 61.9795C105.712 62.1328 105.419 62.1726 105.155 62.1073C104.888 62.0448 104.647 61.8801 104.494 61.6274L104.428 61.5195L103.869 60.6082L102.889 59.0153L97.9605 51.0004L97.7844 50.7137C97.6311 50.4638 97.5914 50.1714 97.6567 49.9073C97.7191 49.6404 97.8838 49.3991 98.1365 49.2457L99.9564 48.1271C100.459 47.8176 101.118 47.9737 101.424 48.4763L108.133 59.3906C108.443 59.8931 108.287 60.549 107.784 60.8585L107.781 60.8608Z" fill="url(#paint3_linear_3_2053)"/>
</g>
<defs>
<filter id="filter0_d_3_2053" x="-9.72748e-05" y="2.47955e-05" width="161.8" height="161.8" filterUnits="userSpaceOnUse" color-interpolation-filters="sRGB">
<feFlood flood-opacity="0" result="BackgroundImageFix"/>
<feColorMatrix in="SourceAlpha" type="matrix" values="0 0 0 0 0 0 0 0 0 0 0 0 0 0 0 0 0 0 127 0" result="hardAlpha"/>
<feOffset/>
<feGaussianBlur stdDeviation="13.95"/>
<feComposite in2="hardAlpha" operator="out"/>
<feColorMatrix type="matrix" values="0 0 0 0 0 0 0 0 0 0 0 0 0 0 0 0 0 0 0.25 0"/>
<feBlend mode="normal" in2="BackgroundImageFix" result="effect1_dropShadow_3_2053"/>
<feBlend mode="normal" in="SourceGraphic" in2="effect1_dropShadow_3_2053" result="shape"/>
</filter>
<linearGradient id="paint0_linear_3_2053" x1="76.9221" y1="75.4722" x2="85.042" y2="76.0161" gradientUnits="userSpaceOnUse">
<stop offset="0.298077" stop-color="#E04A00"/>
<stop offset="1" stop-color="#FF915C"/>
</linearGradient>
<linearGradient id="paint1_linear_3_2053" x1="69.7842" y1="69.5914" x2="93.3917" y2="71.9277" gradientUnits="userSpaceOnUse">
<stop offset="0.298077" stop-color="#E04A00"/>
<stop offset="1" stop-color="#FF915C"/>
</linearGradient>
<linearGradient id="paint2_linear_3_2053" x1="51.8999" y1="93.4723" x2="100.965" y2="104.59" gradientUnits="userSpaceOnUse">
<stop offset="0.298077" stop-color="#E04A00"/>
<stop offset="1" stop-color="#FF915C"/>
</linearGradient>
<linearGradient id="paint3_linear_3_2053" x1="62.416" y1="46.9" x2="111.485" y2="58.015" gradientUnits="userSpaceOnUse">
<stop offset="0.298077" stop-color="#E04A00"/>
<stop offset="1" stop-color="#FF915C"/>
</linearGradient>
</defs>
</svg>
