<svg viewBox="0 0 1440 374" fill="none" xmlns="http://www.w3.org/2000/svg" preserveAspectRatio="xMidYMax meet">
  <g stroke="#5C2409" stroke-width="2.5" fill="none" opacity="0.9">
    <!-- Crane on left -->
    <path d="M60 200 L90 175 L110 200 M95 180 L95 350 M80 195 L110 195 M70 210 L100 210"/>
    <circle cx="65" cy="335" r="4"/>
    <circle cx="72" cy="340" r="3"/>

    <!-- Small temple dome -->
    <path d="M140 240 Q140 215 160 215 Q180 215 180 240 L180 350 M140 350 L180 350"/>
    <circle cx="160" cy="208" r="10"/>
    <path d="M145 250 L175 250 M145 265 L175 265 M145 280 L175 280"/>
    <path d="M150 295 L150 320 M170 295 L170 320"/>

    <!-- Arched building complex -->
    <path d="M200 250 L200 350 M290 250 L290 350 M200 350 L290 350"/>
    <path d="M210 250 Q230 230 250 250 M250 250 Q270 230 290 250"/>
    <path d="M215 265 L215 310 M230 265 L230 310 M245 265 L245 310 M260 265 L260 310 M275 265 L275 310"/>
    <rect x="215" y="315" width="15" height="35"/>

    <!-- Historic fort structure -->
    <path d="M310 210 L310 350 M410 210 L410 350 M310 210 L410 210 M310 350 L410 350"/>
    <rect x="320" y="230" width="80" height="60"/>
    <path d="M330 240 L330 280 M345 240 L345 280 M360 240 L360 280 M375 240 L375 280 M390 240 L390 280"/>
    <path d="M325 295 L325 340 M350 295 L350 340 M375 295 L375 340"/>
    <circle cx="360" cy="195" r="18"/>

    <!-- Ornate palace with multiple arches -->
    <path d="M420 230 L420 350 M560 230 L560 350 M420 350 L560 350"/>
    <path d="M430 230 Q445 210 460 230 M460 230 Q475 210 490 230 M490 230 Q505 210 520 230 M520 230 Q535 210 550 230"/>
    <path d="M435 245 L435 290 M460 245 L460 290 M485 245 L485 290 M510 245 L510 290 M535 245 L535 290"/>
    <path d="M440 300 L440 340 M470 300 L470 340 M500 300 L500 340 M530 300 L530 340"/>

    <!-- Modern office building -->
    <rect x="580" y="200" width="70" height="150"/>
    <path d="M590 210 L590 230 M600 210 L600 230 M610 210 L610 230 M620 210 L620 230 M630 210 L630 230 M640 210 L640 230"/>
    <path d="M590 240 L590 260 M600 240 L600 260 M610 240 L610 260 M620 240 L620 260 M630 240 L630 260 M640 240 L640 260"/>
    <path d="M590 270 L590 290 M600 270 L600 290 M610 270 L610 290 M620 270 L620 290 M630 270 L630 290 M640 270 L640 290"/>

    <!-- Large temple complex with dome -->
    <path d="M670 180 L670 350 M780 180 L780 350 M670 350 L780 350"/>
    <circle cx="725" cy="150" r="35"/>
    <path d="M695 150 L755 150 M695 160 L755 160"/>
    <path d="M680 190 L680 220 M700 190 L700 220 M720 190 L720 220 M740 190 L740 220 M760 190 L760 220"/>
    <rect x="690" y="230" width="60" height="50"/>
    <path d="M695 240 L695 270 M710 240 L710 270 M725 240 L725 270 M740 240 L740 270"/>
    <path d="M685 285 L685 340 M720 285 L720 340 M755 285 L755 340"/>

    <!-- Gateway arch -->
    <path d="M800 230 L800 350 M890 230 L890 350 M800 230 Q845 180 890 230"/>
    <rect x="835" y="270" width="25" height="80"/>
    <path d="M810 250 L810 300 M880 250 L880 300"/>

    <!-- Parliament-style building with central dome -->
    <path d="M910 200 L910 350 M1070 200 L1070 350 M910 200 L1070 200 M910 350 L1070 350"/>
    <circle cx="990" cy="160" r="45"/>
    <path d="M955 160 L1025 160 M955 170 L1025 170 M955 180 L1025 180"/>
    <rect x="950" y="210" width="80" height="60"/>
    <path d="M920 220 L920 270 M940 220 L940 270 M960 220 L960 270 M1000 220 L1000 270 M1020 220 L1020 270 M1040 220 L1040 270 M1060 220 L1060 270"/>
    <path d="M925 280 L925 340 M950 280 L950 340 M975 280 L975 340 M1005 280 L1005 340 M1030 280 L1030 340 M1055 280 L1055 340"/>

    <!-- Tall tower -->
    <rect x="1090" y="180" width="45" height="170"/>
    <rect x="1095" y="160" width="35" height="20"/>
    <path d="M1100 190 L1100 220 M1110 190 L1110 220 M1120 190 L1120 220 M1130 190 L1130 220"/>
    <path d="M1100 230 L1100 260 M1110 230 L1110 260 M1120 230 L1120 260 M1130 230 L1130 260"/>

    <!-- Modern skyscraper -->
    <rect x="1155" y="140" width="55" height="210"/>
    <path d="M1165 150 L1165 170 M1175 150 L1175 170 M1185 150 L1185 170 M1195 150 L1195 170 M1205 150 L1205 170"/>
    <path d="M1165 180 L1165 200 M1175 180 L1175 200 M1185 180 L1185 200 M1195 180 L1195 200 M1205 180 L1205 200"/>
    <path d="M1165 210 L1165 230 M1175 210 L1175 230 M1185 210 L1185 230 M1195 210 L1195 230 M1205 210 L1205 230"/>
    <path d="M1165 240 L1165 260 M1175 240 L1175 240 M1185 240 L1185 260 M1195 240 L1195 260 M1205 240 L1205 260"/>

    <!-- Fort with battlements -->
    <path d="M1230 230 L1230 350 M1350 230 L1350 350 M1230 350 L1350 350"/>
    <path d="M1230 230 L1240 220 L1255 230 L1270 220 L1285 230 L1300 220 L1315 230 L1330 220 L1350 230"/>
    <path d="M1245 250 L1245 300 M1270 250 L1270 300 M1295 250 L1295 300 M1320 250 L1320 300"/>
    <rect x="1280" y="310" width="30" height="40"/>

    <!-- Additional architectural details and people -->
    <circle cx="55" cy="340" r="2"/>
    <circle cx="80" cy="342" r="2"/>
    <path d="M280 335 L280 345 M280 340 L275 343 M280 340 L285 343"/>
    <path d="M515 338 L515 348 M515 343 L510 346 M515 343 L520 346"/>
    <circle cx="870" cy="200" r="3"/>
    <circle cx="875" cy="205" r="2"/>
  </g>
</svg>
