<svg width="412" height="412" viewBox="0 0 412 412" fill="none" xmlns="http://www.w3.org/2000/svg">
  <path d="M206 50 C220 48, 235 55, 245 65 C255 75, 265 90, 275 105 C285 120, 295 135, 305 150 C315 165, 325 180, 330 195 C335 210, 335 225, 330 240 C325 255, 315 270, 305 285 C295 300, 285 315, 275 325 C265 335, 255 340, 245 345 C235 350, 225 352, 215 355 C205 358, 195 360, 185 360 C175 360, 165 358, 155 355 C145 352, 135 347, 125 340 C115 333, 105 325, 95 315 C85 305, 75 293, 68 280 C61 267, 56 253, 53 238 C50 223, 50 208, 52 193 C54 178, 58 163, 65 149 C72 135, 82 122, 93 110 C104 98, 117 88, 131 80 C145 72, 160 66, 175 62 C190 58, 195 55, 206 50 Z M245 70 L255 75 L263 85 L270 95 L278 108 L285 122 L290 137 L292 152 L290 167 L285 182 L278 197 L270 210 L263 220 L255 228 L245 233 L235 236 L225 237 L215 236 L205 233 L195 228 L185 220 L175 210 L168 197 L162 182 L158 167 L157 152 L158 137 L162 122 L168 108 L175 95 L183 85 L192 77 L202 72 L212 70 L222 70 L232 70 L242 70 Z" stroke="white" stroke-width="2" fill="none" opacity="0.6"/>
  <!-- Simplified India map outline -->
  <path d="M206 80 L220 85 L235 92 L248 102 L258 115 L265 130 L270 145 L273 160 L273 175 L270 190 L265 205 L258 220 L248 235 L235 248 L220 258 L206 265 L192 268 L178 268 L164 265 L150 258 L138 248 L128 235 L120 220 L115 205 L112 190 L112 175 L115 160 L120 145 L128 130 L138 115 L150 102 L164 92 L178 85 L192 80 L206 80 Z" stroke="rgba(255,255,255,0.8)" stroke-width="2.5" fill="none"/>
</svg>
